<svg xmlns="http://www.w3.org/2000/svg" viewBox="-10 0 120 116" width="120" height="116">
  <defs>
    <linearGradient id="ga" x1="0" y1="0" x2="1" y2="1">
      <stop offset="0" stop-color="#2dd4bf"/><stop offset="1" stop-color="#8b5cf6"/>
    </linearGradient>
    <filter id="fa" x="-60%" y="-60%" width="220%" height="220%">
      <feGaussianBlur stdDeviation="6"/>
    </filter>
    <clipPath id="cb"><path d="M44 16 h12 v28 a30 30 0 1 1 -12 0 z"/></clipPath>
  </defs>
  <g transform="rotate(5 50 106)">
    <path d="M44 16 h12 v28 a30 30 0 1 1 -12 0 z" fill="url(#ga)" opacity="0.7" filter="url(#fa)"/>
    <g clip-path="url(#cb)">
      <rect x="10" y="46" width="80" height="68" fill="url(#ga)"/>
      <path d="M-6 50 q14 -7 28 0 t28 0 t28 0 t28 0 v-16 h-112 z" fill="#0b0b10" opacity="0.92" transform="rotate(-4 50 76)"/>
      <circle cx="44" cy="94" r="2.2" fill="#e8fffb" opacity="0.85"/>
      <circle cx="56" cy="98" r="1.7" fill="#e8fffb" opacity="0.85"/>
    </g>
    <path d="M44 16 h12 v28 a30 30 0 1 1 -12 0 z" fill="none" stroke="#e8e8f0" stroke-width="3"/>
    <rect x="40" y="12" width="20" height="6" rx="3" fill="#e8e8f0"/>
  </g>
</svg>
